<?xml version="1.0" encoding="UTF-8"?>
<svg version="1.1" viewBox="0 0 2048 458" width="4000" height="896" xmlns="http://www.w3.org/2000/svg">
<path transform="translate(1240,81)" d="m0 0h92l-1 11-8 42-1 3h56l-5 25-9 42-1 2-54 1-19 94-1 7v14l3 9 6 5 6 2h10l13-3 15-7 14-8 14-11 12-11 8-7 10-10 5-26 5-17 10-21 11-16 11-13 10-10 15-11 15-9 17-8 19-7 25-6 29-4 16-1h48l29 3 33 5 1 5-28 183-13 84-2 6h-90l-1-4 3-17v-3l-8 7-13 9-10 6-15 5-13 2h-16l-18-3-13-5-13-7-11-9-9-9-10-14-5-9v-2l-9 6-17 12-19 12-27 14-15 6-18 5-21 3h-17l-18-3-14-5-11-6-13-11-11-14-6-12-25 13-25 11-24 9-25 8-26 6-20 3-11 1h-30l-23-2-20-4-21-7-15-8-16-12-17-17-17 9-26 12-29 11-22 7-24 6-25 4-11 1h-30l-29-3-21-5-16-6-13-7-11-8-14-12-11-14-8-14-6-16-5-21-2-18v-14l2-21 5-22 8-21 9-17 10-14 9-11 10-10 17-13 14-8 15-7 20-6 20-3h28l19 3 21 7 15 8 13 10 10 10 10 14 8 15 6 18 3 14 2 20v19l-2 21-2 10h-178l2 18 5 15 7 10 7 6 10 5 13 3h32l21-3 21-6 28-10 24-10 22-11 13-8-1-23 2-22 5-22 7-19 8-16 9-14 8-10 9-10 11-10 16-11 21-11 19-6 15-3 9-1h29l18 3 21 7 15 8 12 9 12 12 9 13 9 17 6 20 3 18 1 12v18l-2 22-2 10h-178l3 21 4 11 6 10 8 7 11 5 12 3h33l20-3 21-6 31-11 21-9 22-11 24-14 13-9 2-2 15-81 1-6h-51l1-9 11-60h53l1-9 9-46zm-512 114-12 3-8 5-5 5-7 9-9 16-7 16v3h84l1-1v-18l-3-16-5-10-4-5-6-4-11-3zm296 0-12 3-9 6-7 7-9 15-11 23v3h84l1-1v-18l-3-16-5-10-5-6-7-4-9-2zm547 5-19 5-13 7-13 10-11 12-8 13-7 15-5 18-2 19v9l2 12 5 12 7 9 7 5 9 3h14l14-4 21-11 7-5 3-15 17-108v-6z"/>
<path transform="translate(147,35)" d="m0 0h102l3 9 57 228v5h2l2-6 14-26 13-24 12-22 17-32 12-22 13-24 12-22 14-26 15-28 6-10h100l1 4 17 362v17h-93l-1-1-3-60-8-181-8 14-28 52-13 23-17 32-12 22-14 26-12 22-13 24-12 22-3 5h-59l-5-18-30-119-28-112-4 10-35 105-16 50-28 84h-97l3-11 35-105 14-43 21-64 38-114 14-43z"/>
<path transform="translate(1729,137)" d="m0 0h97l15 29 16 32 6 11 5-5 14-17 8-10 13-16 11-14 8-10h106v2h-2l-2 4-11 12-9 11-11 12-9 11-11 12-9 11-11 12-9 11-11 12-9 11-11 12-9 11-10 11-9 11-11 12-9 11-11 12-9 11-11 12-9 11-11 12-9 11-11 12-9 11h-107l2-4 16-17 7-8 45-50 7-8 10-11 7-8 36-40v-4l-17-28-16-26-15-25-28-46z"/>
<path transform="translate(1919,302)" d="m0 0 4 4 13 22 13 21 16 26 17 28 8 13v2h-96l-5-8-12-24-10-19-1-4 12-14 9-10 9-11 11-12 9-11z" fill="#38B548"/>
</svg>
